<svg width="1920" height="801" viewBox="0 0 1920 801" fill="none" xmlns="http://www.w3.org/2000/svg">
<path d="M234.99 3.33214C211.693 -6.35588 66.6228 7.36882 -3 15.4422V781.499H75.8278C111.978 791.187 361.348 798.297 481.515 800.641L817.913 781.499L1232.64 800.641L1446.03 781.499C1481.17 786.708 1568.94 797.828 1638.83 800.641C1708.72 803.454 1856.06 789.052 1921 781.499V24.0366C1907.61 21.1718 1876.31 15.4422 1858.24 15.4422C1840.16 15.4422 1680.33 29.5055 1602.68 36.5372C1456.23 42.2667 1156.12 52.71 1127.2 48.6473C1098.28 44.5845 823.604 24.8177 689.881 15.4422L409.716 36.5372C361.181 29.5055 258.286 13.0202 234.99 3.33214Z" fill="#FFFDE6"/>
</svg>
