<?xml version="1.0" encoding="UTF-8"?>
<svg id="_圖層_1" data-name="圖層 1" xmlns="http://www.w3.org/2000/svg" viewBox="0 0 1080 1080">
  <defs>
    <style>
      .cls-1 {
        fill: #fdfce6;
        stroke-width: 0px;
      }
    </style>
  </defs>
  <path class="cls-1" d="m-213-132v1342.56h1506V-132H-213ZM1005.81,611.37c-.46,1.16-1.16,2.29-1.36,3.5-6.83,42.11-24.68,78.81-53.93,109.92-29.83,31.72-66.04,54.38-105.27,72.22-89.16,40.54-183.33,59.18-280.87,62.11-48.24,1.45-96.09-2.85-143.74-10.31-50.18-7.85-99.57-18.55-147.05-37.02-48.2-18.75-93.68-42.11-131.47-78.25-40.58-38.82-62.15-86.55-65.07-142.48-2.27-43.49,7.92-84.49,27.25-123.27,25.04-50.23,62.39-89.86,107.13-123,7.36-5.45,14.93-10.63,22.27-15.85-15.78-41.91,2.42-83.83,37.14-102.09,8.57-4.51,18.42-6.59,27.68-9.79h22.43c.54.34,1.05.89,1.64,1,24.49,4.41,43.48,17.05,56.45,38.28,2.41,3.94,4.71,2.69,7.65,1.73,44.69-14.57,90.35-23.36,137.51-24.42,43.67-.98,86.91,1.61,129.41,12.22,16.34,4.08,32.52,8.85,49.08,13.39,1.12-1.7,2.28-3.51,3.49-5.3,11.06-16.44,25.96-27.77,44.97-33.57,3.93-1.2,7.91-2.23,11.86-3.34h22.43c1.44.46,2.85,1.08,4.32,1.36,35.52,6.65,62.78,35.79,65.44,71.97.94,12.79-1.74,25.85-2.77,38.79-.03,1.3,1.74,2.58,3.55,3.81,28.05,19.11,54.01,40.64,76.63,66.03,30.2,33.89,52.96,72,65.2,115.94,3.16,11.34,5.36,22.94,8.01,34.42v61.98Z"/>
</svg>