<?xml version="1.0" encoding="UTF-8"?>
<svg id="_圖層_1" data-name="圖層 1" xmlns="http://www.w3.org/2000/svg" viewBox="0 0 960 748">
  <defs>
    <style>
      .cls-1 {
        fill: #7d7d7d;
      }

      .cls-1, .cls-2 {
        stroke-width: 0px;
      }

      .cls-2 {
        fill: #fff;
      }
    </style>
  </defs>
  <path class="cls-2" d="m0,0v748h960V0H0Zm597.54,728.14h-235.09c-173.02,0-313.29-140.26-313.29-313.29S189.43,101.57,362.46,101.57h235.09c173.02,0,313.29,140.26,313.29,313.29s-140.26,313.29-313.29,313.29Z"/>
  <path class="cls-1" d="m213.56,139.16c.25-34.47,28.68-62.35,63.72-62.35,21.47,0,40.45,10.48,51.99,26.51,10.91-1.15,21.98-1.75,33.19-1.75h.9c-16.16-30.63-48.64-51.55-86.09-51.55-53.56,0-96.98,42.8-96.98,95.59,0,4.63.34,9.18.99,13.63,10.31-7.32,21.09-14.04,32.28-20.09Z"/>
  <path class="cls-1" d="m597.54,101.57c11.21,0,22.28.6,33.19,1.75,11.55-16.04,30.52-26.51,52-26.51,35.04,0,63.47,27.87,63.72,62.35,11.23,6.08,22.05,12.82,32.39,20.17.57-4.18.87-8.45.87-12.79,0-52.79-43.42-95.59-96.98-95.59-37.07,0-69.27,20.5-85.59,50.62h.41Z"/>
</svg>