<svg width="28" height="28" viewBox="0 0 28 28" fill="none" xmlns="http://www.w3.org/2000/svg">
<g clip-path="url(#clip0_640_1434)">
<path d="M17.0078 10.7625V15.2086C17.0078 15.3234 16.9203 15.4109 16.8055 15.4109H16.0945C16.0234 15.4109 15.9633 15.3727 15.9305 15.3289L13.8906 12.5781V15.2141C13.8906 15.3289 13.8031 15.4164 13.6883 15.4164H12.9774C12.8625 15.4164 12.775 15.3289 12.775 15.2141V10.768C12.775 10.6531 12.8625 10.5656 12.9774 10.5656H13.6828C13.743 10.5656 13.8141 10.5984 13.8469 10.6531L15.8867 13.4039V10.768C15.8867 10.6531 15.9742 10.5656 16.0891 10.5656H16.8C16.9149 10.5602 17.0078 10.6531 17.0078 10.757V10.7625ZM11.8836 10.5602H11.1727C11.0578 10.5602 10.9703 10.6477 10.9703 10.7625V15.2086C10.9703 15.3234 11.0578 15.4109 11.1727 15.4109H11.8836C11.9984 15.4109 12.0859 15.3234 12.0859 15.2086V10.7625C12.0859 10.6586 11.9984 10.5602 11.8836 10.5602ZM10.1664 14.2844H8.21954V10.7625C8.21954 10.6477 8.13204 10.5602 8.0172 10.5602H7.30626C7.19142 10.5602 7.10392 10.6477 7.10392 10.7625V15.2086C7.10392 15.2633 7.12032 15.307 7.1586 15.3453C7.19689 15.3781 7.24064 15.4 7.29532 15.4H10.15C10.2649 15.4 10.3524 15.3125 10.3524 15.1977V14.4867C10.3524 14.3828 10.2649 14.2844 10.1609 14.2844H10.1664ZM20.7594 10.5602H17.8992C17.7953 10.5602 17.6969 10.6477 17.6969 10.7625V15.2086C17.6969 15.3125 17.7844 15.4109 17.8992 15.4109H20.7539C20.8688 15.4109 20.9563 15.3234 20.9563 15.2086V14.4922C20.9563 14.3774 20.8688 14.2899 20.7539 14.2899H18.8125V13.5461H20.7539C20.8688 13.5461 20.9563 13.4586 20.9563 13.3438V12.6274C20.9563 12.5125 20.8688 12.425 20.7539 12.425H18.8125V11.6758H20.7539C20.8688 11.6758 20.9563 11.5883 20.9563 11.4734V10.7625C20.9508 10.6586 20.8633 10.5602 20.7539 10.5602H20.7594ZM28 5.10782V22.9359C27.9945 25.7359 25.6977 28.0055 22.8922 28H5.06407C2.26407 27.9945 -0.00545889 25.6922 9.86256e-06 22.8922V5.06407C0.00547861 2.26407 2.30782 -0.00545889 5.10782 9.86256e-06H22.936C25.736 0.00547861 28.0055 2.30235 28 5.10782ZM24.15 12.7695C24.15 8.2086 19.5727 4.49532 13.9563 4.49532C8.33986 4.49532 3.76251 8.2086 3.76251 12.7695C3.76251 16.8547 7.38829 20.2836 12.2883 20.9344C13.4805 21.1914 13.3438 21.6289 13.0758 23.2367C13.032 23.4938 12.868 24.243 13.9563 23.7891C15.0445 23.3352 19.8242 20.3328 21.968 17.8719C23.4445 16.2477 24.15 14.6016 24.15 12.7805V12.7695Z" fill="#505050"/>
</g>
<defs>
<clipPath id="clip0_640_1434">
<rect width="28" height="28" fill="white"/>
</clipPath>
</defs>
</svg>
