<svg width="31" height="31" viewBox="0 0 31 31" fill="none" xmlns="http://www.w3.org/2000/svg">
<path d="M30.7296 6.152C30.6219 6.02304 30.4871 5.91932 30.3349 5.84815C30.1826 5.77698 30.0166 5.74011 29.8485 5.74014H6.6987L5.99697 1.88564C5.90086 1.35659 5.62212 0.878056 5.20934 0.533463C4.79657 0.18887 4.27595 7.77135e-05 3.73824 0H1.14802C0.843547 0 0.551543 0.120953 0.336247 0.33625C0.120952 0.551547 0 0.843552 0 1.14803C0 1.4525 0.120952 1.74451 0.336247 1.95981C0.551543 2.1751 0.843547 2.29606 1.14802 2.29606H3.73107L7.39899 22.4282C7.50704 23.0252 7.7709 23.5831 8.16386 24.0455C7.62149 24.552 7.23002 25.199 7.03286 25.9145C6.8357 26.63 6.84055 27.3861 7.04688 28.099C7.25321 28.8119 7.65295 29.4537 8.20178 29.9533C8.75061 30.4529 9.42709 30.7907 10.1562 30.9293C10.8853 31.0679 11.6385 31.0019 12.3324 30.7385C13.0263 30.4751 13.6336 30.0247 14.0871 29.4373C14.5407 28.8498 14.8226 28.1482 14.9017 27.4103C14.9808 26.6723 14.854 25.9269 14.5354 25.2566H21.0533C20.7964 25.7943 20.6635 26.3828 20.6644 26.9787C20.6644 27.7734 20.9 28.5502 21.3415 29.211C21.7831 29.8718 22.4106 30.3868 23.1448 30.6909C23.879 30.995 24.6869 31.0746 25.4663 30.9196C26.2458 30.7645 26.9617 30.3818 27.5237 29.8199C28.0856 29.258 28.4683 28.542 28.6233 27.7626C28.7783 26.9831 28.6988 26.1752 28.3947 25.441C28.0905 24.7068 27.5755 24.0793 26.9148 23.6377C26.254 23.1962 25.4771 22.9606 24.6824 22.9606H10.7871C10.5182 22.9605 10.2579 22.8661 10.0515 22.6938C9.84515 22.5215 9.70578 22.2823 9.65772 22.0178L9.20282 19.5165H25.8491C26.6557 19.5164 27.4366 19.2332 28.0558 18.7163C28.6749 18.1994 29.093 17.4816 29.2372 16.688L30.9822 7.09338C31.0117 6.92755 31.0044 6.75725 30.9608 6.59456C30.9171 6.43187 30.8382 6.28077 30.7296 6.152ZM12.6282 26.9787C12.6282 27.3193 12.5272 27.6522 12.338 27.9354C12.1488 28.2186 11.8798 28.4393 11.5652 28.5696C11.2505 28.7 10.9043 28.7341 10.5702 28.6676C10.2362 28.6012 9.92937 28.4372 9.68854 28.1963C9.44771 27.9555 9.2837 27.6487 9.21725 27.3146C9.15081 26.9806 9.18491 26.6343 9.31525 26.3197C9.44558 26.005 9.6663 25.7361 9.94949 25.5468C10.2327 25.3576 10.5656 25.2566 10.9062 25.2566C11.3629 25.2566 11.8009 25.4381 12.1239 25.761C12.4468 26.0839 12.6282 26.522 12.6282 26.9787ZM26.4045 26.9787C26.4045 27.3193 26.3035 27.6522 26.1143 27.9354C25.925 28.2186 25.6561 28.4393 25.3414 28.5696C25.0268 28.7 24.6805 28.7341 24.3465 28.6676C24.0125 28.6012 23.7056 28.4372 23.4648 28.1963C23.224 27.9555 23.0599 27.6487 22.9935 27.3146C22.9271 26.9806 22.9612 26.6343 23.0915 26.3197C23.2218 26.005 23.4425 25.7361 23.7257 25.5468C24.0089 25.3576 24.3419 25.2566 24.6824 25.2566C25.1392 25.2566 25.5772 25.4381 25.9001 25.761C26.223 26.0839 26.4045 26.522 26.4045 26.9787ZM26.9785 16.2776C26.9303 16.5429 26.7903 16.7827 26.583 16.9551C26.3757 17.1275 26.1144 17.2214 25.8448 17.2204H8.78523L7.11629 8.0362H28.4723L26.9785 16.2776Z" fill="#505050"/>
</svg>
