<svg width="33" height="22" viewBox="0 0 33 22" fill="none" xmlns="http://www.w3.org/2000/svg">
<path d="M32.3104 3.44226C31.9309 2.08731 30.8127 1.02019 29.3929 0.658052C26.8194 0 16.5 0 16.5 0C16.5 0 6.18066 0 3.60711 0.658052C2.18731 1.02025 1.06909 2.08731 0.689567 3.44226C0 5.89818 0 11.0222 0 11.0222C0 11.0222 0 16.1463 0.689567 18.6022C1.06909 19.9572 2.18731 20.9798 3.60711 21.3419C6.18066 22 16.5 22 16.5 22C16.5 22 26.8193 22 29.3929 21.3419C30.8127 20.9798 31.9309 19.9572 32.3104 18.6022C33 16.1463 33 11.0222 33 11.0222C33 11.0222 33 5.89818 32.3104 3.44226ZM13.125 15.6745V6.36997L21.7499 11.0223L13.125 15.6745Z" fill="#8B8B8B" fill-opacity="0.9"/>
</svg>
