<svg width="23" height="13" viewBox="0 0 23 13" fill="none" xmlns="http://www.w3.org/2000/svg">
<g id="Group 8">
<path id="Vector" d="M22.6999 2.11118L12.4738 12.3373C12.3788 12.4324 12.266 12.5078 12.1419 12.5593C12.0177 12.6107 11.8847 12.6372 11.7503 12.6372C11.6159 12.6372 11.4828 12.6107 11.3587 12.5593C11.2345 12.5078 11.1218 12.4324 11.0268 12.3373L0.800659 2.11118C0.608776 1.9193 0.500977 1.65905 0.500977 1.38768C0.500977 1.11632 0.608776 0.856068 0.800659 0.664184C0.992543 0.4723 1.25279 0.364502 1.52416 0.364502C1.79552 0.364502 2.05577 0.4723 2.24766 0.664184L11.7503 10.1681L21.2529 0.664184C21.3479 0.569173 21.4607 0.493806 21.5848 0.442386C21.709 0.390967 21.842 0.364502 21.9764 0.364502C22.1108 0.364502 22.2438 0.390967 22.368 0.442386C22.4921 0.493806 22.6049 0.569173 22.6999 0.664184C22.7949 0.759195 22.8703 0.87199 22.9217 0.996128C22.9731 1.12027 22.9996 1.25332 22.9996 1.38768C22.9996 1.52205 22.9731 1.6551 22.9217 1.77924C22.8703 1.90338 22.7949 2.01617 22.6999 2.11118Z" fill="#505050"/>
</g>
</svg>
