<svg width="16" height="16" viewBox="0 0 16 16" fill="none" xmlns="http://www.w3.org/2000/svg">
<path d="M15.8199 14.95L11.9725 11.1034C13.0876 9.76465 13.6437 8.0475 13.525 6.30919C13.4063 4.57088 12.622 2.94524 11.3353 1.77045C10.0486 0.595655 8.35844 -0.0378381 6.61653 0.00174965C4.87462 0.0413374 3.21503 0.750958 1.98299 1.98299C0.750958 3.21503 0.0413374 4.87462 0.00174965 6.61653C-0.0378381 8.35844 0.595655 10.0486 1.77045 11.3353C2.94524 12.622 4.57088 13.4063 6.30919 13.525C8.0475 13.6437 9.76465 13.0876 11.1034 11.9725L14.95 15.8199C15.0071 15.877 15.0749 15.9223 15.1496 15.9532C15.2242 15.9841 15.3042 16 15.3849 16C15.4657 16 15.5457 15.9841 15.6203 15.9532C15.6949 15.9223 15.7627 15.877 15.8199 15.8199C15.877 15.7627 15.9223 15.6949 15.9532 15.6203C15.9841 15.5457 16 15.4657 16 15.3849C16 15.3042 15.9841 15.2242 15.9532 15.1496C15.9223 15.0749 15.877 15.0071 15.8199 14.95ZM1.24642 6.77888C1.24642 5.68467 1.57089 4.61502 2.17881 3.70521C2.78672 2.7954 3.65078 2.08629 4.6617 1.66755C5.67263 1.24882 6.78502 1.13925 7.85821 1.35273C8.93141 1.5662 9.9172 2.09311 10.6909 2.86684C11.4647 3.64057 11.9916 4.62636 12.205 5.69955C12.4185 6.77275 12.309 7.88514 11.8902 8.89607C11.4715 9.90699 10.7624 10.771 9.85256 11.379C8.94275 11.9869 7.8731 12.3113 6.77888 12.3113C5.31208 12.3097 3.90582 11.7263 2.86864 10.6891C1.83145 9.65195 1.24805 8.24569 1.24642 6.77888Z" fill="#FF9B25"/>
</svg>
